HIERARCHY
ROOT hip
{
	OFFSET 0.000000 0.000000 0.000000 
	CHANNELS 6 Xposition Yposition Zposition Xrotation Zrotation Yrotation
	JOINT abdomen
	{
		OFFSET 0.000000 3.402643 0.000000 
		CHANNELS 3 Xrotation Zrotation Yrotation
		JOINT chest
		{
			OFFSET 0.000000 8.438565 -0.680529 
			CHANNELS 3 Xrotation Zrotation Yrotation
			JOINT neck
			{
				OFFSET 0.000000 10.207942 -0.272212 
				CHANNELS 3 Xrotation Zrotation Yrotation
				JOINT head
				{
					OFFSET 0.000000 3.130431 0.000000 
					CHANNELS 3 Xrotation Zrotation Yrotation
					End Site
					{
						OFFSET 0.000000 3.130435 0.000000 
					}
				}
			}
			JOINT lCollar
			{
				OFFSET 3.470700 6.669187 -0.816635 
				CHANNELS 3 Yrotation Zrotation Xrotation
				JOINT lShldr
				{
					OFFSET 3.198488 0.000000 0.000000 
					CHANNELS 3 Zrotation Yrotation Xrotation
					JOINT lForeArm
					{
						OFFSET 10.139888 0.000000 0.000000 
						CHANNELS 3 Yrotation Zrotation Xrotation
						JOINT lHand
						{
							OFFSET 8.370511 0.000000 0.000000 
							CHANNELS 3 Zrotation Yrotation Xrotation
							End Site
							{
								OFFSET 4.083176 0.000000 0.000000 
							}
						}
					}
				}
			}
			JOINT rCollar
			{
				OFFSET -3.470700 6.669187 -0.816635 
				CHANNELS 3 Yrotation Zrotation Xrotation
				JOINT rShldr
				{
					OFFSET -3.198488 0.000000 0.000000 
					CHANNELS 3 Zrotation Yrotation Xrotation
					JOINT rForeArm
					{
						OFFSET -10.139888 0.000000 0.000000 
						CHANNELS 3 Yrotation Zrotation Xrotation
						JOINT rHand
						{
							OFFSET -8.370511 0.000000 0.000000 
							CHANNELS 3 Zrotation Yrotation Xrotation
							End Site
							{
								OFFSET -4.083176 0.000000 0.000000 
							}
						}
					}
				}
			}
		}
	}
	JOINT lThigh
	{
		OFFSET 5.308129 -1.633274 1.361059 
		CHANNELS 3 Xrotation Zrotation Yrotation
		JOINT lShin
		{
			OFFSET -2.041588 -20.007561 0.000000 
			CHANNELS 3 Xrotation Zrotation Yrotation
			JOINT lFoot
			{
				OFFSET 0.000000 -19.190928 -1.224953 
				CHANNELS 3 Xrotation Yrotation Zrotation
				End Site
				{
					OFFSET 0.000000 -2.449906 4.627600 
				}
			}
		}
	}
	JOINT rThigh
	{
		OFFSET -5.308129 -1.633274 1.361059 
		CHANNELS 3 Xrotation Zrotation Yrotation
		JOINT rShin
		{
			OFFSET 2.041588 -20.007561 0.000000 
			CHANNELS 3 Xrotation Zrotation Yrotation
			JOINT rFoot
			{
				OFFSET 0.000000 -19.190928 -1.224953 
				CHANNELS 3 Xrotation Yrotation Zrotation
				End Site
				{
					OFFSET 0.000000 -2.449906 4.627600 
				}
			}
		}
	}
}
MOTION
Frames: 14
Frame Time: 0.016667
-2.491336 43.256241 1.859623 9.484483 -7.823833 -88.082985 -15.437700 -1.704970 4.486960 18.472099 -3.767040 2.275390 4.630299 -19.825994 13.191194 0.272044 -0.752506 7.618710 2.000000 -2.000000 0.000000 -51.435001 47.230499 -125.478996 108.858002 -0.167502 0.148424 -179.904999 -179.882996 -3.796670 -2.000000 2.000000 0.000000 67.899002 -43.568802 -131.815994 -97.148903 0.199050 0.116208 179.895004 179.882996 -3.689230 -9.500442 16.673561 -20.223446 32.012310 -19.820875 -4.630898 -19.412859 12.926764 17.821026 -6.930409 -2.000649 9.778104 30.173983 18.901569 4.827425 -11.736807 -19.639400 -14.049159 
-2.527778 42.234230 1.736208 6.252945 -5.293274 -92.862000 -16.279200 -2.416390 4.986440 18.641199 -2.196040 2.270640 3.153881 -17.637100 12.814920 0.733339 0.221135 7.107600 2.000000 -2.000000 0.000000 -52.322102 46.058201 -125.829002 107.110001 -0.171753 0.149804 -179.904999 -179.882996 -3.630660 -2.000000 2.000000 0.000000 69.734802 -42.082500 -132.985001 -93.867599 0.206286 0.116905 179.891006 179.880005 -5.456820 -13.229823 15.290816 -17.462444 38.113338 -24.049591 -6.896264 -23.764313 13.039829 21.976757 -10.130840 -4.427739 14.396421 29.963142 18.670713 4.740928 -18.422146 -20.143703 -16.435696 
-2.421911 41.821476 1.699205 12.034337 -3.138763 -97.540764 -16.557699 -1.328660 4.450400 18.833200 -4.216850 2.196730 3.819972 -17.051203 12.277599 1.035850 0.103545 6.958590 2.000000 -2.000000 0.000000 -53.624802 45.655300 -127.535004 106.250999 -0.173857 0.150435 -179.906998 -179.884995 -2.517380 -2.000000 2.000000 0.000000 71.475800 -40.809200 -135.255005 -92.783600 0.208684 0.117044 179.891998 179.880005 -5.105260 -16.411119 23.595795 -16.396790 43.276535 -26.966558 -9.103408 -26.245350 12.429442 24.847363 -12.657134 3.392229 18.844746 29.060068 18.598555 4.404552 -18.114117 -21.662556 -16.518141 
-2.045724 41.841518 1.670895 14.516809 -2.853040 -102.912491 -16.765100 -0.777879 4.478480 17.048901 -4.669010 2.395100 3.495844 -15.736576 12.574410 1.133660 0.181378 7.023210 2.000000 -2.000000 0.000000 -54.527401 46.132198 -128.697998 106.680000 -0.172804 0.150124 -179.904999 -179.882996 -3.786910 -2.000000 2.000000 0.000000 69.821198 -40.743900 -133.442001 -93.154701 0.207862 0.117002 179.897003 179.875000 -2.654060 -14.835118 26.262238 -15.685394 43.211075 -26.868887 -9.087126 -27.507401 13.674990 25.960602 -13.532262 6.909272 20.990961 28.312941 18.291986 4.172428 -13.939056 -20.414434 -13.966331 
-2.821330 42.614223 1.497995 6.063531 -6.459186 -102.631683 -15.523400 -3.652970 4.001590 19.393400 -2.577590 1.653830 3.362545 -13.558916 11.924499 1.896420 0.775206 6.681410 2.000000 -2.000000 0.000000 -52.322899 45.686298 -126.365997 107.529999 -0.170728 0.149485 -179.908005 -179.886002 -2.341600 -2.000000 2.000000 0.000000 70.234299 -42.130402 -133.580994 -93.994598 0.206005 0.116886 179.895996 179.884003 -3.122830 -8.007542 13.614717 -16.031260 37.461075 -23.603161 -6.634576 -28.115751 17.199505 25.390574 -10.255024 -2.890678 21.599281 29.605785 18.293684 4.639904 -17.650740 -17.551794 -14.589523 
-2.916604 43.001793 1.305409 8.228079 -4.091766 -104.816414 -16.278700 -2.596280 3.811010 19.295500 -2.723950 1.641910 4.293293 -11.422668 11.093353 2.902630 0.919972 6.418740 2.000000 -2.000000 0.000000 -51.647999 45.960602 -125.800003 107.862000 -0.169919 0.149226 -179.910995 -179.878998 -0.740026 -2.000000 2.000000 0.000000 70.892998 -43.105202 -134.604996 -94.892998 0.204020 0.116732 179.895004 179.873001 -3.923590 -7.177190 15.126680 -15.520487 33.118378 -20.404764 -5.028772 -27.257399 17.923166 23.395210 -10.242604 0.738593 23.235842 26.014057 16.162052 3.487517 -16.815332 -16.846657 -12.902295 
-3.113375 43.289650 1.155824 6.513413 -2.668973 -105.364655 -16.762699 -2.890690 3.281650 19.755199 -2.245870 1.281380 4.752678 -10.845410 10.256112 3.312790 0.889936 6.074110 2.000000 -2.000000 0.000000 -52.756901 46.681301 -127.184998 108.008003 -0.169563 0.149111 -179.914001 -179.882004 0.734599 -2.000000 2.000000 0.000000 70.942497 -42.840698 -135.141998 -95.058998 0.203654 0.116700 179.893997 179.873001 -4.050540 -7.323443 13.097769 -15.384323 30.912958 -18.968939 -4.265164 -27.614788 18.817490 23.180265 -10.118134 -0.604391 22.471218 23.241758 14.234163 2.697338 -16.049358 -15.066226 -11.145816 
-3.240901 43.423546 1.029298 6.703968 -1.895738 -105.290405 -16.906099 -2.753990 2.537460 19.637800 -2.460620 0.937852 5.470829 -10.988659 9.218574 3.488150 0.665004 5.688260 2.000000 -2.000000 0.000000 -54.862099 47.274700 -128.718994 107.569000 -0.170632 0.149454 -179.914001 -179.882996 1.242410 -2.000000 2.000000 0.000000 70.433403 -42.411201 -134.994003 -94.736801 0.204365 0.116761 179.895996 179.884003 -3.464620 -7.169081 13.041722 -15.903597 29.638700 -17.869364 -3.841041 -27.451242 19.674902 22.735298 -9.600549 0.045167 22.148151 21.495623 13.085605 2.260424 -14.992605 -15.450461 -10.356243 
-3.295341 43.500912 0.866277 5.872689 -1.773848 -105.792809 -16.836300 -2.527100 2.281310 19.472099 -1.796550 0.844535 6.539085 -11.883561 8.265424 3.389470 0.147648 5.399720 2.000000 -2.000000 0.000000 -57.003899 47.097000 -130.005005 106.210999 -0.173953 0.150463 -179.914993 -179.884003 1.388890 -2.000000 2.000000 0.000000 69.601097 -41.884800 -134.455994 -94.443802 0.205012 0.116813 179.895996 179.873993 -3.269290 -6.818235 12.019904 -15.803364 28.787027 -17.193539 -3.585141 -27.306479 20.076979 22.418371 -9.776035 -0.096146 23.708469 20.992622 12.663606 2.156178 -15.004473 -15.959414 -10.164773 
-3.354542 43.552700 0.742330 6.197811 -1.206679 -106.139374 -16.644199 -2.068830 2.224800 19.559999 -1.952830 0.883556 7.216131 -12.583917 7.446813 3.310740 -0.145140 5.119870 2.000000 -2.000000 0.000000 -57.785000 46.334301 -130.639008 104.765999 -0.177514 0.151450 -179.916000 -179.884995 2.248270 -2.000000 2.000000 0.000000 69.561501 -41.435200 -134.651001 -93.955498 0.206091 0.116892 179.897003 179.875000 -2.634530 -6.900304 12.680869 -15.079815 28.477718 -16.953268 -3.488236 -27.127476 20.045818 22.242374 -10.019853 0.658730 24.044641 20.445988 12.387545 2.008045 -14.409676 -16.172024 -9.863692 
-3.460511 43.580963 0.646790 5.511515 -0.933633 -105.692375 -16.616301 -2.007680 1.971300 19.647900 -1.952880 0.773139 7.828135 -12.594827 6.871791 3.359110 -0.360071 4.936670 2.000000 -2.000000 0.000000 -57.581501 46.460499 -131.136993 104.327003 -0.178601 0.151733 -179.919998 -179.899002 4.259960 -2.000000 2.000000 0.000000 69.131203 -41.572701 -134.231003 -94.238701 0.205466 0.116847 179.897995 179.876007 -2.370860 -6.958752 12.068474 -14.750449 27.865967 -16.533281 -3.317055 -26.882639 19.829765 21.834543 -10.249418 -0.116121 23.281797 20.546524 12.434460 2.037899 -13.957957 -15.966585 -9.714913 
-3.583399 43.632370 0.541159 4.701938 -1.234415 -105.336304 -16.528299 -1.864530 1.741850 19.618799 -1.542760 0.679540 8.853570 -12.044336 6.554912 3.670910 -0.692757 4.926920 2.000000 -2.000000 0.000000 -56.779301 46.158199 -130.852997 104.296997 -0.178674 0.151751 -179.923996 -179.895004 6.642800 -2.000000 2.000000 0.000000 68.663002 -41.885201 -134.212006 -94.922302 0.203956 0.116726 179.899002 179.876999 -1.667740 -6.384486 10.957183 -14.868488 27.195494 -16.009321 -3.135798 -26.716509 20.348934 21.646500 -10.183983 -0.914972 23.580736 21.073132 12.636483 2.198336 -14.510302 -16.359264 -10.069762 
-3.716317 43.691090 0.437735 4.600924 -1.337641 -105.395966 -16.513000 -1.430030 1.846100 19.560301 -1.386510 0.785824 9.467906 -11.627945 6.478942 3.895130 -0.888543 4.973430 2.000000 -2.000000 0.000000 -54.508099 45.056499 -129.662994 104.649002 -0.177804 0.151526 0.072457 -0.100060 -171.169998 -2.000000 2.000000 0.000000 68.626198 -42.421501 -134.710999 -95.439903 0.202814 0.116623 179.899994 179.878006 -1.277110 -5.880145 10.519692 -15.384048 26.742004 -15.496731 -3.003678 -27.560917 20.366488 21.643187 -10.041819 -0.701082 24.790873 21.201666 12.713665 2.211142 -14.902011 -17.374344 -10.444345 
-3.883622 43.731453 0.437812 3.768878 -1.541227 -105.224190 -16.550400 -1.268670 1.860570 19.599400 -1.269350 0.802453 9.494035 -11.594473 6.575784 3.904900 -0.888563 5.022100 2.000000 -2.000000 0.000000 -51.838699 43.376701 -129.699997 105.087997 -0.176718 0.151238 0.077412 -0.092555 -167.985992 -2.000000 2.000000 0.000000 68.217400 -43.085499 -134.703003 -95.918404 0.201759 0.116518 179.901001 179.878998 -0.954847 -5.248777 8.941807 -16.104118 25.787275 -14.693489 -2.737709 -27.877846 21.482712 21.697456 -10.269967 -1.719869 24.863802 21.947567 13.087781 2.397325 -15.598277 -17.419199 -10.872986 
